<svg id="_0487_online_protection" xmlns="http://www.w3.org/2000/svg" viewBox="0 0 500 500" data-imageid="cybersecurity-1-34" imageName="Cybersecurity 1" class="illustrations_image" style="width: 151px;"><defs><style>.cls-1_cybersecurity-1-34{fill:#fff;}.cls-2_cybersecurity-1-34{opacity:.43;}.cls-2_cybersecurity-1-34,.cls-3_cybersecurity-1-34,.cls-4_cybersecurity-1-34,.cls-5_cybersecurity-1-34,.cls-6_cybersecurity-1-34,.cls-7_cybersecurity-1-34,.cls-8_cybersecurity-1-34{fill:none;}.cls-9_cybersecurity-1-34{fill:#a5a5a5;}.cls-3_cybersecurity-1-34{opacity:.58;}.cls-4_cybersecurity-1-34{opacity:.56;}.cls-10_cybersecurity-1-34{fill:#e6e6e6;}.cls-5_cybersecurity-1-34{opacity:.03;}.cls-6_cybersecurity-1-34{opacity:.73;}.cls-7_cybersecurity-1-34{opacity:.08;}.cls-8_cybersecurity-1-34{opacity:.12;}.cls-11_cybersecurity-1-34{fill:#24285b;}.cls-12_cybersecurity-1-34{fill:#000001;}.cls-13_cybersecurity-1-34{fill:#ffd200;}.cls-14_cybersecurity-1-34{fill:#68e1fd;}</style></defs><g id="bg_cybersecurity-1-34"><g class="cls-5_cybersecurity-1-34"><ellipse class="cls-12_cybersecurity-1-34" cx="250" cy="449.25" rx="218.84" ry="29.75"/></g><rect class="cls-10_cybersecurity-1-34" x="305.89" y="410.53" width="118.49" height="31.19"/><g class="cls-2_cybersecurity-1-34"><rect class="cls-10_cybersecurity-1-34" x="279.99" y="380.01" width="118.49" height="31.19"/></g><g class="cls-3_cybersecurity-1-34"><path class="cls-14_cybersecurity-1-34 targetColor" d="m365.57,359.82s-16.46-4.5-20.05-19.82c0,0,25.51-5.16,26.24,21.17l-6.19-1.35Z" style="fill: rgb(104, 225, 253);"/></g><g class="cls-6_cybersecurity-1-34"><path class="cls-14_cybersecurity-1-34 targetColor" d="m367.58,358.19s-11.5-18.19-1.38-35.19c0,0,19.4,12.32,10.78,35.23l-9.4-.04Z" style="fill: rgb(104, 225, 253);"/></g><path class="cls-14_cybersecurity-1-34 targetColor" d="m370.55,358.2s6.08-19.2,24.45-22.84c0,0,3.44,12.47-11.9,22.89l-12.55-.05Z" style="fill: rgb(104, 225, 253);"/><polygon class="cls-11_cybersecurity-1-34" points="358.61 357.77 361.94 380.6 382.96 380.69 386.06 357.88 358.61 357.77"/></g><g id="phone_cybersecurity-1-34"><rect class="cls-9_cybersecurity-1-34" x="104.65" y="21" width="234.59" height="420.72"/><rect class="cls-1_cybersecurity-1-34" x="124.06" y="68.96" width="194.17" height="296.09"/><g class="cls-4_cybersecurity-1-34"><circle class="cls-1_cybersecurity-1-34" cx="222.65" cy="402.96" r="22.95"/></g><g class="cls-8_cybersecurity-1-34"><rect class="cls-12_cybersecurity-1-34" x="202.09" y="37.44" width="65.77" height="9.59"/></g><circle class="cls-1_cybersecurity-1-34" cx="178.27" cy="43.29" r="10.71"/></g><g id="password_cybersecurity-1-34"><g class="cls-7_cybersecurity-1-34"><rect class="cls-12_cybersecurity-1-34" x="104.65" y="99.32" width="176.62" height="296.09"/></g><rect class="cls-14_cybersecurity-1-34 targetColor" x="73.7" y="87.21" width="194.17" height="296.09" style="fill: rgb(104, 225, 253);"/><g class="cls-7_cybersecurity-1-34"><rect class="cls-12_cybersecurity-1-34" x="92.61" y="291.66" width="156.34" height="40.27" rx="11.45" ry="11.45"/></g><path class="cls-1_cybersecurity-1-34" d="m118.89,301.37h6.29l-.51,4.3c-.11,1.04-.35,2.23-.71,3.56.72-.36,1.19-.61,1.42-.74.8-.44,1.4-.75,1.82-.94l3.95-1.88,1.96,6-4.38.91c-.8.15-1.98.26-3.56.31,1.06.83,1.91,1.59,2.53,2.28l2.96,3.21-5.12,3.84-2.11-3.84c-.3-.55-.8-1.62-1.48-3.21-.74,1.74-1.23,2.82-1.48,3.21l-2.13,3.84-5.26-3.84,3.19-3.21c.89-.89,1.76-1.65,2.62-2.28-.87-.08-2.02-.25-3.44-.51l-4.41-.71,2.05-6,3.95,1.79c.42.19,1.45.78,3.1,1.76-.36-1.59-.59-2.78-.68-3.56l-.57-4.3Z"/><path class="cls-1_cybersecurity-1-34" d="m151.36,301.37h6.29l-.51,4.3c-.11,1.04-.35,2.23-.71,3.56.72-.36,1.19-.61,1.42-.74.8-.44,1.4-.75,1.82-.94l3.95-1.88,1.96,6-4.38.91c-.8.15-1.98.26-3.56.31,1.06.83,1.91,1.59,2.53,2.28l2.96,3.21-5.12,3.84-2.11-3.84c-.3-.55-.8-1.62-1.48-3.21-.74,1.74-1.23,2.82-1.48,3.21l-2.13,3.84-5.26-3.84,3.19-3.21c.89-.89,1.76-1.65,2.62-2.28-.87-.08-2.02-.25-3.44-.51l-4.41-.71,2.05-6,3.95,1.79c.42.19,1.45.78,3.1,1.76-.36-1.59-.59-2.78-.68-3.56l-.57-4.3Z"/><path class="cls-1_cybersecurity-1-34" d="m183.83,301.37h6.29l-.51,4.3c-.11,1.04-.35,2.23-.71,3.56.72-.36,1.19-.61,1.42-.74.8-.44,1.4-.75,1.82-.94l3.95-1.88,1.96,6-4.38.91c-.8.15-1.98.26-3.56.31,1.06.83,1.91,1.59,2.53,2.28l2.96,3.21-5.12,3.84-2.11-3.84c-.3-.55-.8-1.62-1.48-3.21-.74,1.74-1.23,2.82-1.48,3.21l-2.13,3.84-5.26-3.84,3.19-3.21c.89-.89,1.76-1.65,2.62-2.28-.87-.08-2.02-.25-3.44-.51l-4.41-.71,2.05-6,3.95,1.79c.42.19,1.45.78,3.1,1.76-.36-1.59-.59-2.78-.68-3.56l-.57-4.3Z"/><path class="cls-1_cybersecurity-1-34" d="m216.3,301.37h6.29l-.51,4.3c-.11,1.04-.35,2.23-.71,3.56.72-.36,1.19-.61,1.42-.74.8-.44,1.4-.75,1.82-.94l3.95-1.88,1.96,6-4.38.91c-.8.15-1.98.26-3.56.31,1.06.83,1.91,1.59,2.53,2.28l2.96,3.21-5.12,3.84-2.11-3.84c-.3-.55-.8-1.62-1.48-3.21-.74,1.74-1.23,2.82-1.48,3.21l-2.13,3.84-5.26-3.84,3.19-3.21c.89-.89,1.76-1.65,2.62-2.28-.87-.08-2.02-.25-3.44-.51l-4.41-.71,2.05-6,3.95,1.79c.42.19,1.45.78,3.1,1.76-.36-1.59-.59-2.78-.68-3.56l-.57-4.3Z"/><rect class="cls-13_cybersecurity-1-34" x="111.04" y="197.64" width="114.51" height="76.27"/><path class="cls-1_cybersecurity-1-34" d="m203.81,197.64h-8.22v-23.67c0-15.26-12.42-27.68-27.68-27.68s-27.68,12.42-27.68,27.68v23.67h-8.22v-23.67c0-19.8,16.1-35.9,35.9-35.9s35.9,16.1,35.9,35.9v23.67Z"/><circle class="cls-11_cybersecurity-1-34" cx="168.3" cy="226.36" r="15.3"/><rect class="cls-11_cybersecurity-1-34" x="162.34" y="233.42" width="11.92" height="27.5"/></g><g id="protection_cybersecurity-1-34"><g class="cls-7_cybersecurity-1-34"><rect class="cls-12_cybersecurity-1-34" x="289.51" y="140" width="49.73" height="97.84"/></g><rect class="cls-11_cybersecurity-1-34" x="295.79" y="133.53" width="99.45" height="97.84"/><path class="cls-13_cybersecurity-1-34" d="m345.52,150.89s-8.15,10.71-27.28,13v27.02c0,15.3,27.28,23.09,27.28,23.09,0,0,27.28-7.79,27.28-23.09v-27.02c-19.13-2.29-27.28-13-27.28-13Z"/><polygon class="cls-1_cybersecurity-1-34" points="340.58 197.99 329.15 185.18 335.28 179.71 341.02 186.14 357.88 169.86 363.59 175.78 340.58 197.99"/></g><g id="wifi_cybersecurity-1-34"><rect class="cls-10_cybersecurity-1-34" x="289.9" y="58.09" width="79.47" height="56.68"/><path class="cls-1_cybersecurity-1-34" d="m329.21,68.97c4.45,0,8.02.67,11.46,2.01,3.13,1.21,5.97,2.9,8.5,5.1.98.85,1.91,1.76,2.81,2.69,1.18,1.2,1.15,3.06-.02,4.28-1.12,1.17-3.01,1.27-4.24.17-.92-.82-1.76-1.74-2.7-2.54-2.39-2.04-5.1-3.53-8.11-4.46-4.44-1.38-8.9-1.42-13.36-.17-2.67.75-5.12,1.97-7.37,3.61-1.49,1.08-2.77,2.37-4.06,3.66-.62.63-1.26,1.17-2.19,1.28-1.2.15-2.49-.43-3.05-1.43-.7-1.24-.66-2.54.23-3.54,1.78-2.01,3.75-3.81,5.95-5.36,2.64-1.85,5.52-3.23,8.62-4.13,2.71-.78,5.47-1.19,7.52-1.17Z"/><path class="cls-1_cybersecurity-1-34" d="m330.72,80.18c2.49.12,4.85.72,7.08,1.78,2.52,1.2,4.64,2.95,6.43,5.07,1.06,1.26,1.01,2.96-.06,4.3-.91,1.14-2.65,1.57-3.99.8-.81-.47-1.5-1.17-2.19-1.83-2.99-2.83-6.46-3.87-10.49-2.92-2.28.54-4.09,1.82-5.69,3.48-.64.66-1.31,1.33-2.09,1.81-1.28.79-3.03.43-4.03-.67-1.07-1.19-1.24-2.98-.28-4.23.66-.85,1.45-1.6,2.23-2.35,1.05-1.01,2.18-1.91,3.43-2.66,2.03-1.22,4.21-2,6.55-2.33,1.02-.14,2.06-.17,3.09-.24Z"/><path class="cls-1_cybersecurity-1-34" d="m335.14,98.37c.08,2.75-2.04,5.39-5.22,5.51-2.81.1-5.44-2.02-5.57-5.21-.11-2.82,1.98-5.48,5.29-5.59,2.73-.09,5.4,2.02,5.5,5.29Z"/></g></svg>